<svg width="2965" height="1306" xmlns="http://www.w3.org/2000/svg" xmlns:xlink="http://www.w3.org/1999/xlink" xml:space="preserve" overflow="hidden"><g transform="translate(-797 -417)"><g><path d="M2663.5 1080.06 3130.53 1080.06 3130.53 1086.94 2663.5 1086.94ZM3125.95 1069.75 3153.45 1083.5 3125.95 1097.25Z" fill="#0E2841" fill-rule="nonzero" fill-opacity="1"/><path d="M3506.07 823.5 3506.07 931.326 2786.42 931.326 2786.42 924.451 3502.63 924.451 3499.19 927.889 3499.19 823.5ZM2791 941.639 2763.5 927.889 2791 914.139Z" fill="#0E2841" fill-rule="nonzero" fill-opacity="1"/><path d="M814.5 1305.06 1281.53 1305.06 1281.53 1311.94 814.5 1311.94ZM1276.95 1294.75 1304.45 1308.5 1276.95 1322.25Z" fill="#0E2841" fill-rule="nonzero" fill-opacity="1"/><path d="M2663.5 802.062 3130.53 802.063 3130.53 808.938 2663.5 808.937ZM3125.95 791.75 3153.45 805.5 3125.95 819.25Z" fill="#0E2841" fill-rule="nonzero" fill-opacity="1"/><path d="M1629.94 876.5 1629.94 957.971 1623.06 957.971 1623.06 876.5ZM1640.25 953.388 1626.5 980.888 1612.75 953.388Z" fill="#0E2841" fill-rule="nonzero" fill-opacity="1"/><path d="M814.5 802.062 1281.53 802.063 1281.53 808.938 814.5 808.937ZM1276.95 791.75 1304.45 805.5 1276.95 819.25Z" fill="#0E2841" fill-rule="nonzero" fill-opacity="1"/><path d="M814 754 814 1706.29" stroke="#196B24" stroke-width="29.7917" stroke-linecap="round" stroke-linejoin="miter" stroke-miterlimit="8" stroke-opacity="1" fill="none" fill-rule="evenodd"/><path d="M2663 754 2663 1706.29" stroke="#196B24" stroke-width="29.7917" stroke-linecap="round" stroke-linejoin="miter" stroke-miterlimit="8" stroke-opacity="1" fill="none" fill-rule="evenodd"/><path d="M814.5 448.167C814.5 433.992 825.991 422.5 840.167 422.5L1768.83 422.5C1783.01 422.5 1794.5 433.992 1794.5 448.167L1794.5 550.833C1794.5 565.008 1783.01 576.5 1768.83 576.5L840.167 576.5C825.991 576.5 814.5 565.008 814.5 550.833Z" stroke="#042433" stroke-width="6.875" stroke-linecap="butt" stroke-linejoin="miter" stroke-miterlimit="8" stroke-opacity="1" fill="#156082" fill-rule="evenodd" fill-opacity="1"/><text fill="#FFFFFF" fill-opacity="1" font-family="Aptos,Aptos_MSFontService,sans-serif" font-style="normal" font-variant="normal" font-weight="400" font-stretch="normal" font-size="83" text-anchor="start" direction="ltr" writing-mode="lr-tb" unicode-bidi="normal" text-decoration="none" transform="matrix(1 0 0 1 1071.39 525)">Synchronous</text><path d="M2663.5 448.167C2663.5 433.992 2674.99 422.5 2689.17 422.5L3617.83 422.5C3632.01 422.5 3643.5 433.992 3643.5 448.167L3643.5 550.833C3643.5 565.008 3632.01 576.5 3617.83 576.5L2689.17 576.5C2674.99 576.5 2663.5 565.008 2663.5 550.833Z" stroke="#042433" stroke-width="6.875" stroke-linecap="butt" stroke-linejoin="miter" stroke-miterlimit="8" stroke-opacity="1" fill="#156082" fill-rule="evenodd" fill-opacity="1"/><text fill="#FFFFFF" fill-opacity="1" font-family="Aptos,Aptos_MSFontService,sans-serif" font-style="normal" font-variant="normal" font-weight="400" font-stretch="normal" font-size="83" text-anchor="start" direction="ltr" writing-mode="lr-tb" unicode-bidi="normal" text-decoration="none" transform="matrix(1 0 0 1 2898.91 525)">Asynchronous</text><rect x="1381.5" y="734.5" width="498" height="142" stroke="#042433" stroke-width="6.875" stroke-linecap="butt" stroke-linejoin="miter" stroke-miterlimit="8" stroke-opacity="1" fill="#F6C6AD" fill-opacity="1"/><text fill="#000000" fill-opacity="1" font-family="Aptos,Aptos_MSFontService,sans-serif" font-style="normal" font-variant="normal" font-weight="400" font-stretch="normal" font-size="83" text-anchor="start" direction="ltr" writing-mode="lr-tb" unicode-bidi="normal" text-decoration="none" transform="matrix(1 0 0 1 1451.57 831)">Request 1</text><path d="M2.54311e-06-3.4375 464.899-3.43716 464.899 3.43784-2.54311e-06 3.4375ZM460.316-13.7497 487.816 0.000360892 460.316 13.7503Z" fill="#0E2841" fill-rule="nonzero" fill-opacity="1" transform="matrix(-1 0 0 1 1377.32 1098.5)"/><rect x="3253.5" y="734.5" width="498" height="142" stroke="#042433" stroke-width="6.875" stroke-linecap="butt" stroke-linejoin="miter" stroke-miterlimit="8" stroke-opacity="1" fill="#F6C6AD" fill-opacity="1"/><text fill="#000000" fill-opacity="1" font-family="Aptos,Aptos_MSFontService,sans-serif" font-style="normal" font-variant="normal" font-weight="400" font-stretch="normal" font-size="83" text-anchor="start" direction="ltr" writing-mode="lr-tb" unicode-bidi="normal" text-decoration="none" transform="matrix(1 0 0 1 3323.48 831)">Request 1</text><rect x="1377.5" y="1027.5" width="498" height="141" stroke="#042433" stroke-width="6.875" stroke-linecap="butt" stroke-linejoin="miter" stroke-miterlimit="8" stroke-opacity="1" fill="#FF7E79" fill-opacity="1"/><text fill="#000000" fill-opacity="1" font-family="Aptos,Aptos_MSFontService,sans-serif" font-style="normal" font-variant="normal" font-weight="400" font-stretch="normal" font-size="83" text-anchor="start" direction="ltr" writing-mode="lr-tb" unicode-bidi="normal" text-decoration="none" transform="matrix(1 0 0 1 1418.58 1124)">Response 1</text><path d="M1629.94 1379.5 1629.94 1460.97 1623.06 1460.97 1623.06 1379.5ZM1640.25 1456.39 1626.5 1483.89 1612.75 1456.39Z" fill="#0E2841" fill-rule="nonzero" fill-opacity="1"/><rect x="1381.5" y="1238.5" width="498" height="141" stroke="#042433" stroke-width="6.875" stroke-linecap="butt" stroke-linejoin="miter" stroke-miterlimit="8" stroke-opacity="1" fill="#F6C6AD" fill-opacity="1"/><text fill="#000000" fill-opacity="1" font-family="Aptos,Aptos_MSFontService,sans-serif" font-style="normal" font-variant="normal" font-weight="400" font-stretch="normal" font-size="83" text-anchor="start" direction="ltr" writing-mode="lr-tb" unicode-bidi="normal" text-decoration="none" transform="matrix(1 0 0 1 1451.57 1335)">Request 2</text><path d="M2.54311e-06-3.4375 464.899-3.43716 464.899 3.43784-2.54311e-06 3.4375ZM460.316-13.7497 487.816 0.000360892 460.316 13.7503Z" fill="#0E2841" fill-rule="nonzero" fill-opacity="1" transform="matrix(-1 0 0 1 1377.32 1601.5)"/><rect x="1377.5" y="1530.5" width="498" height="142" stroke="#042433" stroke-width="6.875" stroke-linecap="butt" stroke-linejoin="miter" stroke-miterlimit="8" stroke-opacity="1" fill="#FF7E79" fill-opacity="1"/><text fill="#000000" fill-opacity="1" font-family="Aptos,Aptos_MSFontService,sans-serif" font-style="normal" font-variant="normal" font-weight="400" font-stretch="normal" font-size="83" text-anchor="start" direction="ltr" writing-mode="lr-tb" unicode-bidi="normal" text-decoration="none" transform="matrix(1 0 0 1 1418.58 1628)">Response 2</text><path d="M2.54311e-06-3.4375 464.899-3.43716 464.899 3.43784-2.54311e-06 3.4375ZM460.316-13.7497 487.816 0.000360892 460.316 13.7503Z" fill="#0E2841" fill-rule="nonzero" fill-opacity="1" transform="matrix(-1 0 0 1 3253.32 1601.5)"/><rect x="3253.5" y="1530.5" width="498" height="142" stroke="#042433" stroke-width="6.875" stroke-linecap="butt" stroke-linejoin="miter" stroke-miterlimit="8" stroke-opacity="1" fill="#FF7E79" fill-opacity="1"/><text fill="#000000" fill-opacity="1" font-family="Aptos,Aptos_MSFontService,sans-serif" font-style="normal" font-variant="normal" font-weight="400" font-stretch="normal" font-size="83" text-anchor="start" direction="ltr" writing-mode="lr-tb" unicode-bidi="normal" text-decoration="none" transform="matrix(1 0 0 1 3294.31 1628)">Response 2</text><path d="M2.54311e-06-3.4375 464.899-3.43716 464.899 3.43784-2.54311e-06 3.4375ZM460.316-13.7497 487.816 0.000360892 460.316 13.7503Z" fill="#0E2841" fill-rule="nonzero" fill-opacity="1" transform="matrix(-1 0 0 1 3253.32 1361.5)"/><rect x="3253.5" y="1290.5" width="498" height="142" stroke="#042433" stroke-width="6.875" stroke-linecap="butt" stroke-linejoin="miter" stroke-miterlimit="8" stroke-opacity="1" fill="#FF7E79" fill-opacity="1"/><text fill="#000000" fill-opacity="1" font-family="Aptos,Aptos_MSFontService,sans-serif" font-style="normal" font-variant="normal" font-weight="400" font-stretch="normal" font-size="83" text-anchor="start" direction="ltr" writing-mode="lr-tb" unicode-bidi="normal" text-decoration="none" transform="matrix(1 0 0 1 3294.31 1387)">Response 1</text><path d="M3506.07 1102.5 3506.07 1210.33 2786.42 1210.33 2786.42 1203.45 3502.63 1203.45 3499.19 1206.89 3499.19 1102.5ZM2791 1220.64 2763.5 1206.89 2791 1193.14Z" fill="#0E2841" fill-rule="nonzero" fill-opacity="1"/><rect x="3253.5" y="1013.5" width="498" height="141" stroke="#042433" stroke-width="6.875" stroke-linecap="butt" stroke-linejoin="miter" stroke-miterlimit="8" stroke-opacity="1" fill="#F6C6AD" fill-opacity="1"/><text fill="#000000" fill-opacity="1" font-family="Aptos,Aptos_MSFontService,sans-serif" font-style="normal" font-variant="normal" font-weight="400" font-stretch="normal" font-size="83" text-anchor="start" direction="ltr" writing-mode="lr-tb" unicode-bidi="normal" text-decoration="none" transform="matrix(1 0 0 1 3323.48 1110)">Request 2</text></g></g></svg>